<svg version="1.1" id="Layer_1" xmlns="http://www.w3.org/2000/svg" xmlns:xlink="http://www.w3.org/1999/xlink" x="0px" y="0px"
	 width="100%" viewBox="0 0 1980 1114" enable-background="new 0 0 1980 1114" xml:space="preserve">
<path fill="#000000" opacity="1.000000" stroke="none" 
	d="
M1414.000000,1115.000000 
	C944.166748,1115.000000 474.833496,1114.994751 5.500271,1115.092896 
	C1.751819,1115.093628 0.905911,1114.249878 0.906927,1110.500244 
	C1.006671,742.166992 1.006667,373.833710 0.907054,5.500476 
	C0.906040,1.752482 1.749428,0.906642 5.499561,0.907193 
	C662.499390,1.003746 1319.499268,1.003733 1976.499146,0.907426 
	C1980.246094,0.906877 1981.094116,1.748039 1981.093140,5.499218 
	C1980.993286,373.832458 1980.993286,742.165771 1981.092773,1110.499023 
	C1981.093750,1114.245605 1980.252686,1115.095947 1976.500977,1115.093750 
	C1789.167358,1114.986816 1601.833618,1115.000000 1414.000000,1115.000000 
z"/>
<path fill="#60AB4A" opacity="1.000000" stroke="none" 
	d="
M1142.037109,315.673553 
	C1141.500366,330.456787 1137.329956,343.975586 1132.211548,357.390167 
	C1125.823486,374.132324 1116.010498,388.835693 1104.620728,402.220703 
	C1097.077393,411.085358 1088.074219,419.005829 1078.243408,425.674500 
	C1068.669067,432.169037 1058.785278,438.197235 1047.979614,442.291687 
	C1033.017090,447.961121 1017.595520,451.687408 1001.508423,453.156067 
	C987.806030,454.407013 974.368835,453.437683 961.101501,450.769653 
	C946.083557,447.749542 931.562439,443.137573 917.939941,435.587280 
	C907.842896,429.990997 898.122803,423.769867 889.515137,416.392609 
	C882.091309,410.030029 875.495789,402.418274 869.285278,394.613708 
	C857.853638,380.248016 849.746399,364.192230 843.841980,346.965027 
	C839.923401,335.531647 837.986694,323.672882 837.949768,311.566711 
	C837.908752,298.112091 837.442871,284.625977 839.275024,271.245056 
	C840.341003,263.459351 842.827942,255.982574 845.602173,248.672119 
	C850.278870,236.347916 855.718384,224.397461 863.505615,213.603714 
	C870.970825,203.256287 879.251770,193.697632 888.703796,185.124008 
	C901.535217,173.485138 916.048767,164.516281 932.088379,158.124237 
	C945.251282,152.878586 958.892334,149.545990 973.059204,147.880066 
	C981.362366,146.903671 989.646484,146.601501 997.829834,147.124237 
	C1020.698547,148.585022 1042.395142,154.192474 1062.850952,165.232895 
	C1090.083252,179.930740 1110.361694,201.356888 1125.294189,227.819016 
	C1131.925171,239.569733 1136.461426,252.490005 1139.231079,266.049835 
	C1142.072632,279.961090 1144.618164,293.749573 1143.891113,308.449707 
	C1142.466553,310.837555 1143.249512,313.349243 1142.037109,315.673553 
z"/>
<path fill="#4FB4C2" opacity="1.000000" stroke="none" 
	d="
M801.255371,679.624634 
	C800.504517,679.769775 800.038086,679.760010 799.224365,679.677673 
	C797.381226,680.083923 795.677917,680.036987 794.227356,681.533081 
	C793.210632,681.775330 792.469666,681.814575 791.354675,681.875488 
	C789.012024,681.919678 787.089172,682.105652 785.229492,683.633789 
	C784.542969,683.876892 784.114563,683.923645 783.368896,683.901123 
	C779.114685,683.793701 775.134216,683.447510 771.218933,685.661194 
	C761.978149,685.895020 752.951965,686.565979 744.045654,685.815063 
	C731.416504,684.750000 719.060120,681.820068 707.029480,677.695923 
	C692.198669,672.611816 678.530823,665.249146 665.891418,656.073425 
	C654.922485,648.110352 645.465332,638.593628 637.248657,627.701416 
	C632.761902,621.753723 628.458984,615.739807 624.622437,609.383850 
	C618.329285,598.958374 614.029358,587.735168 610.234070,576.144104 
	C603.757324,556.363586 604.428040,536.099487 605.235046,515.923767 
	C605.872192,499.995300 610.720886,484.791626 617.197266,470.135315 
	C622.644409,457.808228 629.726501,446.412354 638.240723,436.205872 
	C648.510376,423.895081 659.929626,412.701080 673.925720,404.102173 
	C684.982117,397.309357 696.326843,391.313995 708.510742,387.367157 
	C722.388672,382.871613 736.674866,379.558807 751.543579,380.171753 
	C757.693359,380.425262 763.866150,380.119019 770.489197,380.141083 
	C774.530273,382.023865 778.471924,381.866150 782.666382,382.250793 
	C783.028015,382.200928 783.497253,382.063446 783.738464,382.103180 
	C788.312134,385.029785 793.861389,383.408539 798.628601,386.047974 
	C799.438049,386.096741 799.892090,386.098724 800.674805,386.190613 
	C805.563721,387.502655 809.674622,389.974091 814.617859,391.115875 
	C815.865295,391.064148 816.698669,391.208710 817.646240,392.071350 
	C825.044434,396.055664 832.172241,399.849457 839.583191,403.841492 
	C839.840027,404.089111 839.922791,404.109436 839.910645,404.150269 
	C844.039429,407.448303 848.167908,410.722504 852.944824,413.392151 
	C853.257446,413.245087 853.590454,413.293060 853.665283,413.443726 
	C855.813843,417.691833 860.096741,419.590393 863.006348,422.895264 
	C866.575317,426.949127 870.660950,430.541046 874.447998,434.881714 
	C874.658813,435.153931 874.814209,435.078888 874.853027,435.155945 
	C876.398621,438.850983 879.197571,441.497681 882.075317,444.373230 
	C882.413818,444.406799 882.592041,444.446350 882.585754,444.537415 
	C882.370850,445.533905 883.130737,445.975922 883.684631,446.831818 
	C883.848877,447.068573 883.922791,447.050323 883.930542,447.087646 
	C888.382202,455.219543 893.397949,463.002655 897.367798,471.762756 
	C897.636719,472.517120 897.729248,472.960419 897.909912,473.732513 
	C900.976562,479.027557 902.019348,484.721802 903.818237,490.107178 
	C906.101807,496.943878 907.211548,504.105499 908.121704,511.268036 
	C908.229797,512.119080 908.795471,512.758606 909.535522,513.718384 
	C909.839294,514.775635 909.908569,515.526489 909.907471,516.649780 
	C910.159302,527.441406 909.226379,537.850342 909.726501,548.655273 
	C909.894409,549.771057 909.915100,550.501282 909.863037,551.591370 
	C907.101624,557.031372 907.010071,562.743408 905.729614,568.545837 
	C905.594360,569.344910 905.568665,569.791016 905.532715,570.572998 
	C904.907776,572.357422 903.979614,573.686340 903.785522,575.650879 
	C903.729736,576.423279 903.726501,576.860596 903.649841,577.617676 
	C902.057434,579.781006 901.364075,581.968201 900.893555,584.613464 
	C900.847534,585.398987 900.850464,585.839539 900.804199,586.606812 
	C894.864075,598.587280 889.361511,610.454773 881.529602,621.021057 
	C879.071167,624.337830 876.199829,627.375122 874.138916,631.400391 
	C873.867737,631.636414 873.881409,631.833984 873.786743,631.863159 
	C871.928162,633.048767 870.723328,634.746094 869.151611,636.571167 
	C868.903259,636.813477 868.882080,636.933411 868.822388,636.921509 
	C868.679321,637.102356 868.595947,637.294983 868.216064,637.593506 
	C866.754395,639.004822 865.589233,640.310181 864.134644,641.771484 
	C863.449036,642.475952 862.987366,642.961426 862.173157,643.563721 
	C861.143494,644.754211 860.393555,645.758057 859.362488,646.901123 
	C856.801514,647.969177 855.252014,649.845215 853.172485,651.566101 
	C852.744324,652.068176 852.588013,652.390503 852.197266,652.853271 
	C851.250549,653.735046 850.161072,653.865417 849.200195,654.766357 
	C848.978821,654.969910 849.002441,654.996216 848.988037,654.988159 
	C847.816772,655.862793 846.380310,656.360107 845.211304,657.756958 
	C844.981262,657.970825 845.002441,657.999390 844.987549,657.990417 
	C843.616455,659.088440 841.762756,659.302063 840.198608,660.696289 
	C839.941772,660.895752 839.932739,660.964478 839.900635,660.951416 
	C839.750244,661.121582 839.631958,661.304688 839.206665,661.600464 
	C838.899597,661.713013 838.926392,661.860718 838.852417,661.873291 
	C835.999817,663.400391 833.234558,664.938843 830.240845,666.751404 
	C829.987549,666.981262 830.000000,667.000000 829.990723,666.993652 
	C821.519714,671.600098 812.512817,674.953857 803.248474,678.632935 
	C802.939148,678.838257 802.463684,678.945129 802.221191,678.969238 
	C801.832336,679.152100 801.686035,679.310913 801.255371,679.624634 
z"/>
<path fill="#9D8EB6" opacity="1.000000" stroke="none" 
	d="
M1376.662231,522.800415 
	C1376.853516,530.057617 1378.104614,537.349731 1376.507446,543.952820 
	C1374.471313,552.369812 1373.859009,560.970886 1371.714600,569.363281 
	C1367.529907,585.741821 1360.829468,600.963196 1351.998779,615.203735 
	C1345.888794,625.057068 1338.372803,633.888672 1330.047852,642.103271 
	C1315.973511,655.990967 1299.927246,666.768738 1281.768555,674.374512 
	C1269.892090,679.348938 1257.463135,682.622253 1244.788940,684.893127 
	C1243.518555,685.120850 1242.149780,684.799683 1240.378662,684.740234 
	C1239.109497,684.978577 1238.222412,684.987000 1237.216431,685.663513 
	C1227.819458,685.705750 1218.605713,686.352295 1209.567749,685.704529 
	C1196.835083,684.791870 1184.300293,681.953125 1172.184814,677.456604 
	C1162.271606,673.777466 1152.749023,669.454834 1143.613770,664.117371 
	C1134.569580,658.833069 1126.046387,652.616272 1118.556274,645.596558 
	C1107.651489,635.376770 1098.551880,623.339478 1090.672729,610.481628 
	C1080.705688,594.216370 1075.298096,576.301270 1071.282227,557.889404 
	C1070.551636,554.540283 1070.973755,550.925659 1070.974609,547.433594 
	C1070.977783,534.774353 1070.326660,522.061462 1071.290283,509.473541 
	C1072.014526,500.011505 1074.927002,490.722687 1078.203125,481.719452 
	C1083.914062,466.024872 1091.669067,451.431213 1102.174316,438.380829 
	C1108.842651,430.097015 1115.997925,422.376251 1124.282593,415.547760 
	C1133.004761,408.358612 1142.017700,401.814636 1152.081299,396.704071 
	C1160.803955,392.274567 1169.622437,388.353394 1179.199829,385.761383 
	C1187.436035,383.532379 1195.720947,381.714783 1204.084595,380.772552 
	C1212.366943,379.839508 1220.774780,379.728394 1229.202759,379.856171 
	C1239.266113,380.008789 1249.193604,381.244080 1258.718872,383.562958 
	C1266.279785,385.403595 1274.006592,387.531036 1281.333618,390.748535 
	C1296.578857,397.442963 1310.854858,405.629608 1323.191772,416.812286 
	C1330.168335,423.136261 1336.939819,429.750641 1342.725464,437.277405 
	C1350.777100,447.752350 1357.414185,459.047241 1363.160278,470.932068 
	C1369.933960,484.942139 1372.922485,499.906250 1374.953735,515.578674 
	C1375.811523,518.095032 1374.934204,520.595093 1376.662231,522.800415 
z"/>
<path fill="#CFAC35" opacity="1.000000" stroke="none" 
	d="
M1138.912842,799.622742 
	C1138.852539,800.420410 1138.835205,800.858887 1138.709961,801.609436 
	C1138.337524,802.451660 1138.198608,802.992554 1138.605835,803.817749 
	C1138.749512,804.067810 1138.881836,804.510315 1138.807739,804.729065 
	C1137.667358,805.820923 1136.939697,806.878540 1136.832520,808.634888 
	C1136.687622,809.856384 1136.612061,810.754639 1136.230957,811.803101 
	C1134.682007,813.531128 1134.661011,815.564880 1133.838013,817.641296 
	C1133.659424,818.535645 1133.562256,819.118469 1133.188721,819.825439 
	C1131.008423,822.835327 1130.278687,826.206726 1129.015991,829.702515 
	C1128.762939,830.590149 1128.515015,831.135071 1127.976440,831.778687 
	C1125.509155,835.170837 1123.804077,838.701233 1122.165649,842.637329 
	C1121.925171,842.888733 1121.949219,842.963989 1121.914429,842.945312 
	C1120.582397,844.153381 1119.957153,845.754395 1119.146729,847.598267 
	C1118.898438,847.806213 1118.901001,847.905579 1118.851318,847.904663 
	C1116.199219,850.716614 1114.484497,854.135010 1112.137695,857.513672 
	C1111.721924,858.042786 1111.563232,858.356018 1111.182129,858.817078 
	C1110.329468,859.593018 1109.900391,860.365662 1109.166504,861.310547 
	C1103.365601,870.082092 1095.891479,876.997314 1088.291626,883.486877 
	C1071.845703,897.530151 1052.876709,907.406738 1032.044922,913.208191 
	C1012.731506,918.586853 992.965576,920.113281 972.556335,917.715698 
	C971.612061,917.397400 971.111328,917.111145 970.248535,917.019714 
	C956.150574,917.018005 943.511230,912.085388 930.996887,907.180542 
	C918.384216,902.237122 906.708923,895.384094 896.124023,886.828064 
	C886.328247,878.910095 877.599182,870.051392 869.620850,860.190857 
	C857.291382,844.952637 849.256775,827.757263 843.133911,809.419983 
	C839.910156,799.765198 838.263916,789.786438 838.057190,779.692322 
	C837.768005,765.574829 837.038391,751.367371 839.396240,737.366089 
	C841.263855,726.275818 844.896057,715.599060 849.128174,705.179077 
	C854.593262,691.723511 862.619751,679.760620 871.485535,668.378052 
	C881.578979,655.419312 894.011841,645.022949 907.867432,636.270630 
	C919.634521,628.837585 932.124268,623.008606 945.462158,618.998596 
	C956.445618,615.696533 967.695557,613.941711 979.539795,613.091736 
	C986.386658,613.235779 992.796387,613.359558 999.619446,613.300903 
	C1001.076477,613.147705 1002.120544,613.147888 1003.544678,613.245483 
	C1007.549377,614.974304 1011.469421,614.864380 1015.656982,615.197266 
	C1016.182251,615.108948 1016.352112,615.096436 1016.766113,615.159180 
	C1021.178589,616.104065 1025.249878,617.343689 1029.697021,618.380737 
	C1031.223755,618.336426 1032.404297,618.381592 1033.774658,618.732422 
	C1042.381470,622.636963 1050.993896,625.765747 1059.602539,629.828613 
	C1060.059692,630.092712 1060.234741,630.110413 1060.666992,630.186279 
	C1068.370483,635.046021 1076.032837,639.511230 1083.523438,644.869751 
	C1083.755737,645.134033 1083.867554,645.107605 1083.878540,645.163940 
	C1084.948364,645.828308 1085.717529,646.769958 1086.829346,647.775208 
	C1087.055298,647.973267 1086.997925,647.988159 1087.015381,647.964111 
	C1088.646851,649.463745 1089.790161,651.692383 1092.782959,651.766479 
	C1093.073242,651.947083 1093.013794,651.995056 1093.030029,651.960510 
	C1095.342163,656.288208 1099.203003,659.187439 1103.125488,662.296875 
	C1103.463501,662.248779 1103.689331,662.333130 1103.720459,662.449585 
	C1103.546631,665.526550 1106.182251,666.640869 1107.852295,668.779053 
	C1108.235962,669.097961 1108.394653,669.166809 1108.682373,669.461060 
	C1112.927612,675.142578 1116.831909,680.745789 1120.716553,686.781006 
	C1120.946289,687.040039 1121.000000,687.000305 1120.978271,687.025696 
	C1121.733887,687.738220 1121.862915,688.824341 1122.688721,689.833618 
	C1122.860474,690.079773 1122.931885,690.061951 1122.922607,690.097534 
	C1124.384033,692.078735 1124.530029,694.753052 1126.645752,696.751587 
	C1127.218262,697.077881 1127.481201,697.238770 1127.651611,697.743164 
	C1125.832520,700.559570 1129.096191,701.547791 1129.570068,703.786987 
	C1130.039917,704.576660 1130.299683,705.060730 1130.585205,705.830322 
	C1132.998779,712.956299 1135.405396,719.789734 1138.400635,726.773438 
	C1138.617798,727.803650 1138.655029,728.530884 1138.697266,729.623047 
	C1138.763550,734.941956 1140.646973,739.563477 1141.498535,744.735107 
	C1141.745239,745.489075 1141.825684,745.911438 1141.877197,746.656494 
	C1142.841553,756.464294 1142.394287,765.982056 1142.524536,775.487488 
	C1142.560791,778.139343 1142.359131,780.721558 1141.679932,783.649109 
	C1141.856445,784.481506 1141.858276,784.902649 1141.778564,785.630127 
	C1140.149780,790.248413 1140.268799,794.903320 1138.912842,799.622742 
z"/>
<path fill="#49C4D5" opacity="1.000000" stroke="none" 
	d="
M1009.000000,1040.989014 
	C1009.000000,1041.986816 1008.987854,1042.486938 1009.001953,1042.986328 
	C1009.100159,1046.457153 1007.997681,1050.751343 1009.646118,1053.166748 
	C1011.284363,1055.567017 1015.833618,1053.817383 1019.095459,1053.940674 
	C1021.125244,1054.017456 1022.073486,1054.410767 1022.042786,1056.708252 
	C1021.929565,1065.202637 1021.936890,1073.700073 1022.039917,1082.194702 
	C1022.066406,1084.378052 1021.358398,1085.046387 1019.187866,1085.037964 
	C1001.030396,1084.967773 982.872131,1084.933960 964.715149,1085.055298 
	C961.331665,1085.077881 962.011292,1082.976318 962.009888,1081.098511 
	C961.994263,1060.442017 962.048645,1039.785156 961.953857,1019.129028 
	C961.937378,1015.538574 961.491455,1011.922729 960.924072,1008.369690 
	C960.359253,1004.832581 956.916199,1004.203308 954.481384,1004.224121 
	C951.410095,1004.250427 947.819214,1005.115112 946.652710,1008.883911 
	C945.892883,1011.338745 945.111145,1013.912231 945.073486,1016.443481 
	C944.905029,1027.768677 945.088928,1039.099121 944.937927,1050.424805 
	C944.900391,1053.240845 945.678467,1054.040894 948.537476,1054.077759 
	C959.001526,1054.212891 959.000122,1054.332275 958.999939,1064.629517 
	C958.999878,1070.293457 958.887756,1075.960449 959.049927,1081.619751 
	C959.122314,1084.145996 958.491211,1085.073486 955.762146,1085.059082 
	C934.939575,1084.949341 914.116028,1084.953125 893.293457,1085.056152 
	C890.642517,1085.069214 889.890503,1084.284546 889.944397,1081.675659 
	C890.102722,1074.015991 890.175110,1066.345459 889.926819,1058.690430 
	C889.801697,1054.832275 891.332092,1053.438599 894.902832,1054.021362 
	C899.004761,1054.691040 900.210999,1053.238647 900.112976,1048.990967 
	C899.805542,1035.671265 899.886475,1022.338257 900.079773,1009.014221 
	C900.128052,1005.687073 899.120972,1004.446533 895.912231,1005.002075 
	C890.864258,1005.875977 889.703125,1003.443176 889.910095,998.814636 
	C890.244568,991.333252 890.112061,983.823608 889.948608,976.330872 
	C889.878174,973.102661 890.981384,971.910400 894.268738,971.946899 
	C906.427917,972.082031 918.594116,972.195618 930.747986,971.908264 
	C935.905457,971.786377 935.607849,975.983887 936.824524,978.706665 
	C937.530457,980.286438 938.240540,981.893494 939.035461,984.232056 
	C950.382202,969.379883 965.462219,967.757446 981.574768,971.440674 
	C987.878479,972.881714 993.541748,976.802673 997.542725,982.203857 
	C999.019226,984.197021 999.258423,984.555908 1001.270325,982.661377 
	C1004.557617,979.565979 1008.322693,976.909241 1012.135620,974.454834 
	C1020.690552,968.947998 1030.444824,969.522156 1039.890259,970.125427 
	C1056.151978,971.164001 1067.332642,982.411133 1071.395996,996.044434 
	C1073.621826,1003.512878 1074.827637,1011.349670 1074.958008,1019.209778 
	C1075.129150,1029.535156 1075.123047,1039.868042 1074.925049,1050.192505 
	C1074.865845,1053.282471 1075.728882,1054.584595 1078.802490,1053.990967 
	C1084.196289,1052.949463 1085.414307,1055.406616 1085.110107,1060.418701 
	C1084.676758,1067.555542 1084.918457,1074.739746 1085.044434,1081.900635 
	C1085.085693,1084.242188 1084.425903,1085.060425 1081.981567,1085.047485 
	C1064.657227,1084.955322 1047.331299,1084.910278 1030.007935,1085.070557 
	C1026.407471,1085.104004 1027.000122,1082.994385 1027.000122,1080.891113 
	C1027.000000,1060.567749 1026.888550,1040.243286 1027.088379,1019.921936 
	C1027.131592,1015.534424 1025.783081,1011.545959 1024.862061,1007.445251 
	C1024.258911,1004.759521 1021.002197,1003.905579 1019.016724,1004.229858 
	C1016.118042,1004.703186 1012.299316,1004.487915 1010.975159,1008.520752 
	C1009.851807,1011.942383 1008.813477,1015.277344 1008.933044,1019.003052 
	C1009.162781,1026.159058 1009.000000,1033.327637 1009.000000,1040.989014 
z"/>
<path fill="#6CB555" opacity="1.000000" stroke="none" 
	d="
M619.000000,1085.000000 
	C589.173035,1085.000000 559.844971,1084.877441 530.520081,1085.123413 
	C525.753296,1085.163330 524.692932,1083.672241 524.908447,1079.283813 
	C525.251343,1072.302124 525.117310,1065.288574 524.945984,1058.294189 
	C524.872314,1055.284668 525.393494,1053.909302 528.937500,1053.903564 
	C540.000305,1053.885376 540.000000,1053.716797 540.000000,1042.835083 
	C539.999939,1016.840759 539.911865,990.845764 540.093506,964.852722 
	C540.121155,960.893494 539.036926,959.818542 535.119995,959.904175 
	C525.004150,960.125183 525.000000,959.934937 525.000000,949.894226 
	C525.000000,944.562073 525.242737,939.215088 524.919495,933.902588 
	C524.682922,930.015015 525.838989,928.887573 529.833801,928.905640 
	C565.658630,929.067383 601.484497,928.999939 637.310059,929.000000 
	C644.308533,929.000000 651.309387,929.105774 658.304321,928.948792 
	C661.037048,928.887512 662.087219,929.596985 662.059326,932.537720 
	C661.923340,946.866577 661.940979,961.197998 662.043457,975.527466 
	C662.065674,978.634644 661.200073,980.089478 657.814148,980.048462 
	C646.651550,979.913147 635.485352,979.918762 624.322571,980.046997 
	C621.071533,980.084351 619.820129,978.907043 619.958496,975.662781 
	C620.135803,971.504639 619.901245,967.330017 620.033630,963.168518 
	C620.107483,960.845154 619.374878,959.931824 616.935242,959.961487 
	C607.938538,960.071045 598.938721,960.080261 589.942322,959.958679 
	C587.352844,959.923767 586.944153,961.106506 586.971191,963.290466 
	C587.057617,970.287842 587.177246,977.293335 586.924438,984.282715 
	C586.804565,987.596497 588.174805,988.084473 591.017456,988.051880 
	C602.180237,987.923462 613.350647,988.199707 624.507019,987.902771 
	C629.035278,987.782227 630.250977,989.386353 630.082092,993.669739 
	C629.786926,1001.156494 629.851074,1008.667603 630.069702,1016.159546 
	C630.161011,1019.291077 629.139465,1020.106140 626.106018,1020.064331 
	C614.444153,1019.903687 602.776855,1020.112305 591.115662,1019.928833 
	C587.841187,1019.877319 586.850891,1020.844177 586.928894,1024.118408 
	C587.139282,1032.944824 587.081665,1041.780640 586.953674,1050.610229 
	C586.916199,1053.194946 587.690796,1054.092651 590.343445,1054.049683 
	C599.005920,1053.908936 607.673767,1053.903442 616.335938,1054.053467 
	C619.108704,1054.101318 620.205994,1053.337524 620.053772,1050.428833 
	C619.836304,1046.274536 620.191162,1042.088745 619.941223,1037.937988 
	C619.734375,1034.503906 621.185425,1033.021729 624.429382,1033.015991 
	C635.427002,1032.996460 646.424561,1033.005249 657.422180,1033.008179 
	C660.600708,1033.009033 662.099365,1034.283691 662.062744,1037.786621 
	C661.911194,1052.281860 661.897461,1066.781006 662.075867,1081.275635 
	C662.116394,1084.568115 660.846008,1085.079346 657.991333,1085.052246 
	C645.161865,1084.930298 632.330627,1084.999756 619.000000,1085.000000 
z"/>
<path fill="#A996C7" opacity="1.000000" stroke="none" 
	d="
M1239.000000,1038.995605 
	C1239.000000,1028.336792 1238.859375,1018.174133 1239.080078,1008.019409 
	C1239.152344,1004.694092 1238.119751,1003.405762 1234.918457,1004.012390 
	C1230.515869,1004.846863 1229.753174,1002.756592 1229.908813,998.812134 
	C1230.217407,990.996399 1230.098877,983.158081 1229.945190,975.333252 
	C1229.894409,972.742859 1230.609985,971.917786 1233.280273,971.941589 
	C1247.435913,972.067810 1261.593994,972.065002 1275.749634,971.941406 
	C1278.311646,971.919006 1279.627930,972.830872 1280.628784,975.085632 
	C1281.435181,976.902466 1281.902588,978.737671 1282.318726,980.651855 
	C1282.956421,983.585205 1283.800049,984.983765 1286.724243,981.922424 
	C1291.273438,977.159973 1296.056030,972.316650 1302.773193,970.737610 
	C1319.026001,966.916748 1334.343872,967.504150 1346.576538,981.050537 
	C1351.575195,986.585999 1353.788574,993.424561 1354.902100,1000.467346 
	C1357.430054,1016.455017 1355.619385,1032.605225 1355.864380,1048.680664 
	C1355.930298,1053.008057 1356.836304,1054.831421 1361.281128,1054.012817 
	C1366.022217,1053.139771 1367.317627,1055.328735 1367.093506,1059.874634 
	C1366.741211,1067.018799 1366.891602,1074.195801 1367.055298,1081.353760 
	C1367.117188,1084.059448 1366.485352,1085.089233 1363.532715,1085.065552 
	C1346.545654,1084.929688 1329.555786,1084.892822 1312.569824,1085.088257 
	C1309.108276,1085.127930 1308.945435,1083.645752 1308.956543,1080.957153 
	C1309.037598,1061.304443 1308.934326,1041.651001 1309.063599,1021.998962 
	C1309.085571,1018.643005 1308.343506,1015.433044 1307.589233,1012.324524 
	C1306.456665,1007.658325 1303.146240,1004.983582 1297.973999,1004.967041 
	C1292.365356,1004.949158 1288.114258,1007.682800 1286.069092,1013.275696 
	C1285.471191,1014.910889 1284.914062,1016.582031 1284.937378,1018.487061 
	C1285.067871,1029.144653 1285.099365,1039.806274 1284.934692,1050.462891 
	C1284.890381,1053.335083 1285.750977,1054.313477 1288.578491,1054.044556 
	C1290.889160,1053.824585 1293.255615,1054.184937 1295.565186,1053.958984 
	C1299.536377,1053.570435 1301.305176,1054.741821 1301.096802,1059.166992 
	C1300.744507,1066.645264 1300.902222,1074.153931 1301.052734,1081.645630 
	C1301.104126,1084.203979 1300.438721,1085.071655 1297.740845,1085.058228 
	C1276.256348,1084.951904 1254.770874,1084.953857 1233.286377,1085.056519 
	C1230.627808,1085.069214 1229.892944,1084.273071 1229.944702,1081.672852 
	C1230.100220,1073.848022 1230.208740,1066.010132 1229.908325,1058.193848 
	C1229.767090,1054.517212 1231.082397,1053.416626 1234.410156,1054.005371 
	C1238.085449,1054.655762 1239.488281,1053.316650 1239.073608,1049.480103 
	C1238.717773,1046.187500 1239.000000,1042.826050 1239.000000,1038.995605 
z"/>
<path fill="#A996C7" opacity="1.000000" stroke="none" 
	d="
M1178.840820,1054.972168 
	C1183.563599,1053.062500 1187.987915,1051.502808 1191.641357,1048.243042 
	C1193.236938,1046.819458 1195.040649,1046.305786 1197.221558,1049.133789 
	C1202.137573,1055.507935 1207.982300,1061.163208 1213.406250,1067.150024 
	C1214.551147,1068.413696 1215.198486,1069.712036 1213.365601,1071.161377 
	C1205.961182,1077.016357 1198.045654,1081.787231 1189.093872,1085.099609 
	C1174.681396,1090.432739 1159.742188,1089.628906 1145.059692,1088.711548 
	C1131.697510,1087.876587 1119.944946,1081.639404 1111.093506,1071.202148 
	C1103.250000,1061.953613 1098.180786,1051.545288 1096.747437,1039.094360 
	C1095.287354,1026.411377 1095.795410,1014.138672 1101.227661,1002.674805 
	C1108.644165,987.023743 1120.779785,976.155518 1137.790161,971.795593 
	C1148.221436,969.122009 1158.921509,969.426575 1169.639893,970.819336 
	C1180.282837,972.202271 1189.577148,976.117249 1197.707886,983.131287 
	C1205.258667,989.645203 1209.820557,997.482666 1212.342163,1007.321045 
	C1214.037964,1013.937500 1214.890625,1020.346252 1215.029419,1027.035522 
	C1215.129883,1031.878052 1212.968872,1036.119385 1211.650024,1040.563843 
	C1210.991211,1042.783813 1208.521851,1041.973511 1206.786377,1041.976685 
	C1187.120361,1042.013428 1167.454346,1042.000000 1147.788330,1042.000000 
	C1145.976807,1042.000000 1144.165161,1042.000000 1142.278076,1042.000000 
	C1144.837402,1051.753906 1151.481445,1057.130249 1160.972656,1056.951904 
	C1166.831665,1056.841919 1172.905151,1058.215698 1178.840820,1054.972168 
z"/>
<path fill="#49C4D5" opacity="1.000000" stroke="none" 
	d="
M831.000000,1042.000000 
	C821.751465,1042.000000 813.002930,1042.000000 804.068542,1042.000000 
	C808.190613,1053.648682 812.813538,1056.531494 824.077332,1057.132935 
	C835.161316,1057.724854 844.751892,1054.582153 853.385254,1048.018677 
	C855.376221,1046.505005 856.631409,1046.942749 858.022156,1048.508667 
	C863.588989,1054.776245 869.210388,1060.997070 874.671448,1067.355469 
	C875.944519,1068.837769 876.059814,1070.058716 873.888916,1071.841064 
	C860.004578,1083.239624 844.267273,1089.317871 826.305054,1088.918579 
	C816.971558,1088.711304 807.632141,1090.068115 798.284241,1087.220093 
	C785.023193,1083.179932 774.480896,1075.835205 766.950500,1064.337036 
	C761.238708,1055.615845 758.859192,1045.624634 758.093872,1035.406494 
	C757.065552,1021.677551 758.756531,1008.237976 766.086548,996.220093 
	C772.309448,986.017395 780.953369,978.064270 792.304688,974.140381 
	C810.146179,967.973083 828.186646,967.592651 845.936218,974.967834 
	C858.112854,980.027405 867.627686,988.573669 871.936951,1000.809814 
	C876.248352,1013.052002 878.586609,1026.068604 873.533142,1039.129395 
	C872.636963,1041.445801 871.740784,1042.057373 869.476074,1042.041748 
	C856.817871,1041.954468 844.158813,1042.000000 831.000000,1042.000000 
z"/>
<path fill="#6CB555" opacity="1.000000" stroke="none" 
	d="
M679.000000,1075.950439 
	C679.000061,1070.125488 679.194702,1064.784912 678.936340,1059.466309 
	C678.743530,1055.495972 679.817627,1053.272583 684.186646,1054.010376 
	C688.204102,1054.688721 689.102356,1052.935913 689.084595,1049.096680 
	C688.935730,1016.944092 688.938293,984.790161 689.084167,952.637573 
	C689.100952,948.949524 688.213501,947.332581 684.417236,947.992981 
	C681.009949,948.585754 679.788940,947.291626 679.917236,943.696289 
	C680.190247,936.042603 680.096863,928.370483 679.949646,920.709839 
	C679.897583,917.998169 680.561401,916.914490 683.521973,916.940247 
	C698.847778,917.073914 714.177612,917.148254 729.500793,916.907715 
	C733.739563,916.841248 732.994019,919.324585 732.994446,921.732117 
	C733.001953,963.881226 733.092651,1006.030823 732.874939,1048.178833 
	C732.849670,1053.081665 734.128723,1054.401611 738.912109,1054.112549 
	C745.979553,1053.685425 745.999878,1054.008911 745.999817,1061.130493 
	C745.999756,1067.960938 745.899597,1074.793579 746.046875,1081.620850 
	C746.103027,1084.221924 745.280457,1085.058960 742.647278,1085.046997 
	C722.656067,1084.955566 702.663940,1084.952637 682.672791,1085.050781 
	C679.917908,1085.064331 678.643005,1084.358398 678.968872,1081.438599 
	C679.152527,1079.793091 679.000732,1078.110352 679.000000,1075.950439 
z"/>
<path fill="#E3B430" opacity="1.000000" stroke="none" 
	d="
M1392.000000,1051.898071 
	C1392.000000,1037.081177 1391.897583,1022.750244 1392.076294,1008.422791 
	C1392.117920,1005.083923 1391.480103,1003.380615 1387.796265,1003.967102 
	C1386.496216,1004.174011 1385.112671,1003.842041 1383.807007,1004.031311 
	C1380.696777,1004.482056 1379.844604,1003.260620 1379.926636,1000.179993 
	C1380.143799,992.021179 1380.091797,983.851135 1379.947876,975.689026 
	C1379.901123,973.034729 1380.428589,971.941467 1383.431885,971.915955 
	C1392.001343,971.843323 1392.000000,971.686890 1392.000000,962.949585 
	C1392.000000,952.198364 1391.989746,952.165649 1401.808960,949.071960 
	C1411.685669,945.960022 1421.674072,943.171875 1431.428101,939.718262 
	C1434.892456,938.491699 1435.040771,939.556335 1435.021118,942.294006 
	C1434.961304,950.624817 1435.256348,958.967468 1434.891479,967.282715 
	C1434.709717,971.425171 1436.176636,972.338257 1439.915039,972.068604 
	C1444.058960,971.769714 1448.242554,972.065002 1452.406372,971.979431 
	C1454.922852,971.927856 1456.042969,972.922974 1456.022217,975.509888 
	C1455.953979,984.007202 1455.914795,992.506714 1456.049683,1001.002441 
	C1456.088989,1003.483704 1455.183838,1004.109802 1452.871826,1004.041809 
	C1448.043823,1003.899658 1443.204468,1004.122986 1438.378540,1003.950623 
	C1435.842407,1003.859985 1434.916504,1004.524109 1434.940430,1007.247192 
	C1435.068970,1021.908997 1434.923828,1036.573120 1435.041382,1051.235107 
	C1435.085327,1056.718628 1438.589844,1059.167969 1444.051270,1058.006470 
	C1446.278687,1057.532471 1448.664185,1057.490356 1450.734863,1056.651733 
	C1456.048584,1054.499634 1455.996704,1054.365112 1455.999268,1060.087280 
	C1456.002319,1066.419067 1456.000488,1072.750732 1455.999756,1079.082520 
	C1455.999023,1085.613892 1454.427612,1087.136353 1447.915283,1088.036011 
	C1437.344727,1089.496338 1426.697876,1089.449463 1416.150879,1088.814087 
	C1406.903931,1088.257202 1396.799805,1081.541992 1394.303223,1070.374023 
	C1392.992676,1064.510864 1391.817993,1058.500610 1392.000000,1051.898071 
z"/>
<path fill="#499199" opacity="1.000000" stroke="none" 
	d="
M874.192261,631.587402 
	C873.814575,629.658691 874.964355,628.188782 876.080017,626.778015 
	C884.739136,615.828735 891.767700,603.909790 897.473267,591.185486 
	C898.130432,589.719849 898.421143,587.950684 900.438171,587.038025 
	C899.751282,592.635681 896.258911,597.252869 893.856323,602.320862 
	C888.818176,612.948181 881.775085,622.334167 874.192261,631.587402 
z"/>
<path fill="#AB9440" opacity="1.000000" stroke="none" 
	d="
M1141.951050,783.676025 
	C1141.506836,783.718994 1140.850708,783.373108 1140.855713,783.037048 
	C1141.030518,771.266724 1141.267700,759.497253 1141.672241,747.353394 
	C1145.173584,755.535706 1143.860474,764.482727 1144.067017,773.302124 
	C1144.148804,776.786438 1143.678955,780.155640 1141.951050,783.676025 
z"/>
<path fill="#49949C" opacity="1.000000" stroke="none" 
	d="
M909.966492,548.631897 
	C907.960022,548.169250 908.160522,546.449219 908.062988,544.770081 
	C907.572266,536.321716 910.173523,527.886353 908.151367,519.426270 
	C907.955933,518.608459 908.404297,517.803894 909.496338,517.152222 
	C911.922180,527.408142 911.515503,537.811829 909.966492,548.631897 
z"/>
<path fill="#49949C" opacity="1.000000" stroke="none" 
	d="
M909.805176,513.617554 
	C907.981384,513.725342 907.293518,512.480408 907.133789,510.855011 
	C905.903809,498.341583 901.680908,486.573273 898.068359,474.348328 
	C900.341797,474.398346 900.416382,476.434296 900.915161,478.074860 
	C904.295898,489.195129 907.889893,500.264771 909.265991,511.882782 
	C909.320312,512.341553 909.642822,512.768555 909.805176,513.617554 
z"/>
<path fill="#49949C" opacity="1.000000" stroke="none" 
	d="
M874.556030,434.836029 
	C871.102600,434.303955 869.624390,430.979034 867.504395,428.645355 
	C863.000488,423.687653 856.904297,420.282501 853.637451,413.925659 
	C860.077393,417.615356 864.404541,423.840302 870.125610,428.530762 
	C872.121277,430.166840 872.939148,432.576843 874.556030,434.836029 
z"/>
<path fill="#499199" opacity="1.000000" stroke="none" 
	d="
M803.328979,678.901550 
	C805.016174,675.850464 808.587341,675.746948 811.525330,674.457520 
	C817.385010,671.885681 823.318665,669.482605 829.601685,666.998535 
	C828.841187,671.087219 824.502502,670.941772 821.803345,672.108521 
	C815.928040,674.648193 810.114197,677.678650 803.328979,678.901550 
z"/>
<path fill="#AB9440" opacity="1.000000" stroke="none" 
	d="
M1083.668579,644.803467 
	C1075.646851,641.298706 1068.218872,636.389709 1061.063965,630.537170 
	C1069.339478,633.613342 1076.909424,638.328186 1083.668579,644.803467 
z"/>
<path fill="#AB9440" opacity="1.000000" stroke="none" 
	d="
M1059.724609,629.764099 
	C1050.999023,627.425903 1042.524658,623.761047 1034.091919,619.358398 
	C1043.086182,621.063599 1051.576904,624.640259 1059.724609,629.764099 
z"/>
<path fill="#49949C" opacity="1.000000" stroke="none" 
	d="
M897.628540,471.719055 
	C894.349731,470.704468 894.237488,467.292511 893.009338,464.759979 
	C890.215332,458.998749 885.601013,454.222961 883.947021,447.496704 
	C889.849304,454.454895 894.062378,462.749756 897.628540,471.719055 
z"/>
<path fill="#AB9440" opacity="1.000000" stroke="none" 
	d="
M1138.692383,726.704712 
	C1135.493164,726.197388 1136.103271,723.124146 1135.083740,721.050171 
	C1132.846680,716.499634 1131.406372,711.653564 1130.473755,706.407959 
	C1133.887207,709.090088 1133.607910,713.702820 1135.742065,717.278625 
	C1137.338257,719.953186 1137.823975,723.290710 1138.692383,726.704712 
z"/>
<path fill="#49949C" opacity="1.000000" stroke="none" 
	d="
M839.784424,403.745911 
	C832.061340,401.415192 824.972412,397.415161 818.067566,392.517151 
	C825.772278,394.838623 832.907593,398.815186 839.784424,403.745911 
z"/>
<path fill="#AB9440" opacity="1.000000" stroke="none" 
	d="
M1120.909546,686.680786 
	C1118.871948,686.668884 1118.084351,684.980103 1117.279541,683.368347 
	C1114.880249,678.562622 1110.516235,675.065308 1108.628296,669.866638 
	C1114.503418,674.019409 1117.368164,680.402527 1120.909546,686.680786 
z"/>
<path fill="#499199" opacity="1.000000" stroke="none" 
	d="
M906.016479,568.786072 
	C905.423706,563.045288 905.890564,557.330933 909.456543,552.073853 
	C908.664551,557.525269 907.538757,563.099304 906.016479,568.786072 
z"/>
<path fill="#49949C" opacity="1.000000" stroke="none" 
	d="
M852.976379,413.093628 
	C847.260315,412.947418 843.933838,408.440063 839.961853,404.520752 
	C845.072754,405.779388 848.555908,409.840637 852.976379,413.093628 
z"/>
<path fill="#AB9440" opacity="1.000000" stroke="none" 
	d="
M1103.300537,661.976440 
	C1098.106079,661.106506 1095.125488,657.385071 1093.055420,652.295776 
	C1096.409912,655.185303 1099.773682,658.444641 1103.300537,661.976440 
z"/>
<path fill="#AB9440" opacity="1.000000" stroke="none" 
	d="
M1139.111328,799.688110 
	C1138.500122,795.230103 1138.849731,790.593567 1141.382446,786.096252 
	C1142.326416,790.668091 1140.994507,795.058167 1139.111328,799.688110 
z"/>
<path fill="#AB9440" opacity="1.000000" stroke="none" 
	d="
M1141.727539,744.638672 
	C1138.493774,740.744629 1138.303345,735.744507 1138.547363,730.334473 
	C1140.233276,734.619995 1141.866089,739.229858 1141.727539,744.638672 
z"/>
<path fill="#49949C" opacity="1.000000" stroke="none" 
	d="
M798.771362,385.787628 
	C794.040222,385.349976 788.798523,385.885010 784.200684,382.423859 
	C788.935181,382.836945 793.989136,383.101166 798.771362,385.787628 
z"/>
<path fill="#49949C" opacity="1.000000" stroke="none" 
	d="
M814.798218,390.841492 
	C809.690369,392.038605 805.816956,388.673309 801.236694,386.516357 
	C806.082642,385.974152 810.104431,389.079163 814.798218,390.841492 
z"/>
<path fill="#499199" opacity="1.000000" stroke="none" 
	d="
M771.368042,685.922119 
	C774.171936,681.780396 778.531555,682.815308 782.902466,683.531494 
	C779.609131,686.186340 775.322388,684.124939 771.368042,685.922119 
z"/>
<path fill="#AB9440" opacity="1.000000" stroke="none" 
	d="
M999.589905,613.056519 
	C993.617920,614.509766 987.172852,613.943054 980.352905,613.288696 
	C986.352478,611.308228 992.757996,613.105774 999.589905,613.056519 
z"/>
<path fill="#49949C" opacity="1.000000" stroke="none" 
	d="
M882.228821,444.140747 
	C877.500549,443.732239 876.365662,439.711365 874.911011,435.594910 
	C877.339783,438.060638 880.264038,440.494110 882.228821,444.140747 
z"/>
<path fill="#49949C" opacity="1.000000" stroke="none" 
	d="
M782.649292,382.069580 
	C778.907776,383.465851 774.940369,383.396912 771.103271,380.533508 
	C774.798645,380.295258 778.600830,380.681641 782.649292,382.069580 
z"/>
<path fill="#AB9440" opacity="1.000000" stroke="none" 
	d="
M1029.679321,618.149292 
	C1025.472046,619.319275 1021.507507,617.298523 1017.226318,615.509094 
	C1021.566528,614.141663 1025.352905,616.465454 1029.679321,618.149292 
z"/>
<path fill="#AB9440" opacity="1.000000" stroke="none" 
	d="
M1122.257568,842.788330 
	C1122.458984,838.734436 1123.885986,835.007385 1127.379883,831.999878 
	C1126.568726,835.755005 1124.965820,839.403625 1122.257568,842.788330 
z"/>
<path fill="#AB9440" opacity="1.000000" stroke="none" 
	d="
M1112.212036,857.660645 
	C1113.102295,853.945190 1114.791626,850.464294 1118.476440,847.985596 
	C1117.557617,851.677002 1115.076294,854.650940 1112.212036,857.660645 
z"/>
<path fill="#AB9440" opacity="1.000000" stroke="none" 
	d="
M1129.332764,829.875732 
	C1128.051147,826.084534 1130.168335,823.140259 1132.589355,820.069580 
	C1132.556519,823.445557 1130.599609,826.406982 1129.332764,829.875732 
z"/>
<path fill="#AB9440" opacity="1.000000" stroke="none" 
	d="
M1015.656250,614.909607 
	C1011.887695,616.847107 1008.079834,615.315674 1004.088989,613.660095 
	C1007.716492,613.794617 1011.508240,614.246216 1015.656250,614.909607 
z"/>
<path fill="#635873" opacity="1.000000" stroke="none" 
	d="
M1376.952881,522.675171 
	C1373.551758,521.831604 1373.873047,519.217712 1374.658203,516.269775 
	C1377.331299,517.524719 1377.010376,519.960632 1376.952881,522.675171 
z"/>
<path fill="#499199" opacity="1.000000" stroke="none" 
	d="
M830.355591,666.959595 
	C831.777100,663.863464 834.851562,662.810059 838.415771,661.923279 
	C836.827454,664.740112 833.747681,665.794739 830.355591,666.959595 
z"/>
<path fill="#3F6833" opacity="1.000000" stroke="none" 
	d="
M1142.292725,315.841980 
	C1140.705566,313.417053 1141.591431,311.249512 1143.562500,309.073669 
	C1143.848633,311.240967 1144.814697,313.746338 1142.292725,315.841980 
z"/>
<path fill="#499199" opacity="1.000000" stroke="none" 
	d="
M901.171021,584.808228 
	C899.971130,582.171509 900.582825,579.825867 903.245667,577.964355 
	C902.883484,580.177551 902.190491,582.417786 901.171021,584.808228 
z"/>
<path fill="#AB9440" opacity="1.000000" stroke="none" 
	d="
M1126.890015,696.715515 
	C1123.910767,696.062805 1123.270386,693.572937 1122.903809,690.521729 
	C1125.307617,691.546326 1125.810791,694.158936 1126.890015,696.715515 
z"/>
<path fill="#AB9440" opacity="1.000000" stroke="none" 
	d="
M1107.987061,668.696289 
	C1105.724854,667.763062 1103.033325,666.769165 1103.605469,662.919922 
	C1105.133423,664.498474 1106.515137,666.430969 1107.987061,668.696289 
z"/>
<path fill="#AB9440" opacity="1.000000" stroke="none" 
	d="
M1129.818970,703.729858 
	C1127.322266,703.034058 1126.149780,701.332397 1127.329346,698.289978 
	C1128.747559,699.617737 1129.880615,701.252991 1129.818970,703.729858 
z"/>
<path fill="#499199" opacity="1.000000" stroke="none" 
	d="
M853.230225,651.697815 
	C853.790222,649.097046 855.701294,647.644836 858.724854,647.059326 
	C857.681458,649.104675 855.836609,650.635925 853.230225,651.697815 
z"/>
<path fill="#AB9440" opacity="1.000000" stroke="none" 
	d="
M1092.910400,651.649048 
	C1089.925659,652.897278 1088.269653,651.203430 1087.081299,648.267273 
	C1089.497681,648.138733 1090.373047,651.000671 1092.910400,651.649048 
z"/>
<path fill="#499199" opacity="1.000000" stroke="none" 
	d="
M785.348755,683.864258 
	C785.973999,681.117981 788.072205,680.984741 790.714050,681.700317 
	C789.800476,684.064148 787.092896,682.221252 785.348755,683.864258 
z"/>
<path fill="#499199" opacity="1.000000" stroke="none" 
	d="
M869.241333,636.757202 
	C869.696533,634.697815 870.549072,632.632385 873.360962,631.920044 
	C872.869202,633.963806 871.940796,635.945190 869.241333,636.757202 
z"/>
<path fill="#499199" opacity="1.000000" stroke="none" 
	d="
M904.077209,575.843445 
	C901.826233,573.772888 904.007202,572.606873 905.249512,571.019653 
	C906.244446,572.756348 904.577759,574.055176 904.077209,575.843445 
z"/>
<path fill="#AB9440" opacity="1.000000" stroke="none" 
	d="
M1134.079590,817.771118 
	C1133.002441,815.686523 1133.769897,813.832642 1135.621826,812.071899 
	C1136.518188,814.129395 1134.524658,815.606567 1134.079590,817.771118 
z"/>
<path fill="#499199" opacity="1.000000" stroke="none" 
	d="
M794.313599,681.755249 
	C794.458252,679.204834 796.365417,679.179321 798.610474,679.443054 
	C798.206299,681.741394 795.994690,680.893616 794.313599,681.755249 
z"/>
<path fill="#499199" opacity="1.000000" stroke="none" 
	d="
M840.300110,660.919739 
	C840.588745,658.761536 842.192078,658.032837 844.609497,657.974121 
	C843.916992,659.525757 842.930359,661.170654 840.300110,660.919739 
z"/>
<path fill="#AB9440" opacity="1.000000" stroke="none" 
	d="
M1119.225830,847.728943 
	C1118.986572,845.897400 1119.214600,844.057129 1121.545898,843.005127 
	C1121.380249,844.637512 1121.136841,846.474548 1119.225830,847.728943 
z"/>
<path fill="#AB9440" opacity="1.000000" stroke="none" 
	d="
M1137.097900,808.860535 
	C1135.669434,807.121704 1136.310669,805.884705 1138.423706,804.998474 
	C1138.299927,806.219482 1137.866211,807.491150 1137.097900,808.860535 
z"/>
<path fill="#499199" opacity="1.000000" stroke="none" 
	d="
M845.307312,657.916321 
	C845.255676,656.065430 846.538574,655.294922 848.626587,655.010010 
	C848.409180,656.577087 847.086121,657.294556 845.307312,657.916321 
z"/>
<path fill="#AB9440" opacity="1.000000" stroke="none" 
	d="
M1087.039062,647.620667 
	C1085.734619,647.712158 1084.586304,647.206421 1083.963623,645.534546 
	C1085.459106,645.099365 1086.675415,645.518860 1087.039062,647.620667 
z"/>
<path fill="#7C758E" opacity="1.000000" stroke="none" 
	d="
M1237.310791,685.919922 
	C1237.408081,684.679199 1238.076904,683.881287 1239.713867,684.567322 
	C1239.651978,686.030273 1238.611450,685.921875 1237.310791,685.919922 
z"/>
<path fill="#AB9440" opacity="1.000000" stroke="none" 
	d="
M1109.223145,861.510437 
	C1108.926270,860.427368 1109.413330,859.631287 1110.675781,859.053589 
	C1111.122314,860.167969 1110.571533,860.971497 1109.223145,861.510437 
z"/>
<path fill="#AB9440" opacity="1.000000" stroke="none" 
	d="
M1122.829102,689.763977 
	C1121.628540,689.770935 1121.107056,688.893982 1120.961670,687.381592 
	C1122.052368,687.479736 1122.514160,688.395508 1122.829102,689.763977 
z"/>
<path fill="#499199" opacity="1.000000" stroke="none" 
	d="
M849.288147,654.892090 
	C849.187195,653.653931 850.063477,653.118958 851.626465,652.993652 
	C851.619995,654.179565 850.658020,654.560913 849.288147,654.892090 
z"/>
<path fill="#957F32" opacity="1.000000" stroke="none" 
	d="
M970.170898,917.230713 
	C970.695374,916.325623 971.383423,916.301086 972.074097,917.383728 
	C971.549805,917.566467 970.964355,917.510620 970.170898,917.230713 
z"/>
<path fill="#499199" opacity="1.000000" stroke="none" 
	d="
M862.202393,643.727295 
	C862.354736,643.179932 862.816101,642.609558 863.561279,641.983276 
	C863.795593,642.816162 863.515869,643.532227 862.202393,643.727295 
z"/>
<path fill="#49949C" opacity="1.000000" stroke="none" 
	d="
M883.786377,446.787872 
	C882.858826,446.865509 882.272217,446.326599 882.456543,444.938416 
	C882.960938,445.254730 883.342407,445.880951 883.786377,446.787872 
z"/>
<path fill="#AB9440" opacity="1.000000" stroke="none" 
	d="
M1138.789551,803.708008 
	C1137.671509,803.666443 1137.042725,803.130554 1138.377319,801.997803 
	C1138.677979,802.397034 1138.753784,802.872559 1138.789551,803.708008 
z"/>
<path fill="#499199" opacity="1.000000" stroke="none" 
	d="
M839.130249,661.694031 
	C838.983337,661.411987 839.164551,661.190857 839.655884,660.994080 
	C839.831238,661.274902 839.662109,661.520447 839.130249,661.694031 
z"/>
<path fill="#499199" opacity="1.000000" stroke="none" 
	d="
M801.218140,679.786743 
	C801.084656,679.488647 801.274658,679.261536 801.759766,679.045776 
	C801.959656,679.357666 801.788513,679.624573 801.218140,679.786743 
z"/>
<path fill="#499199" opacity="1.000000" stroke="none" 
	d="
M868.140991,637.677734 
	C867.975159,637.413391 868.126526,637.193237 868.568115,636.974243 
	C868.789978,637.244690 868.656616,637.493469 868.140991,637.677734 
z"/>
<path fill="#000000" opacity="1.000000" stroke="none" 
	d="
M984.332947,398.726013 
	C984.333191,400.839478 984.333191,402.492828 984.333191,405.344360 
	C979.307312,399.864044 975.496826,394.727509 970.891174,390.310028 
	C961.368408,381.176331 950.530212,374.490997 938.098267,369.913452 
	C926.620056,365.687134 914.955872,362.772583 902.798462,363.213165 
	C892.027405,363.603546 881.369263,365.450378 873.624329,374.236847 
	C871.331055,376.838470 869.423340,375.871033 868.244995,373.641144 
	C860.560608,359.099426 853.508484,344.277374 850.980774,327.803131 
	C850.270508,323.174408 854.584717,318.170502 860.865234,315.754974 
	C873.246887,310.992889 885.994934,310.249054 899.059265,311.954865 
	C920.503479,314.754730 940.715454,321.037048 958.182251,334.066315 
	C974.320801,346.104736 984.800354,361.602692 984.340515,382.783203 
	C984.228516,387.941742 984.329590,393.104889 984.332947,398.726013 
z"/>
<path fill="#000000" opacity="1.000000" stroke="none" 
	d="
M1127.577637,334.476257 
	C1124.030396,349.934082 1117.756714,363.734772 1109.302490,376.958008 
	C1097.661255,364.080719 1083.320312,362.355133 1067.407959,363.852722 
	C1050.332153,365.459869 1035.009888,371.423096 1020.862305,380.381134 
	C1011.205872,386.495453 1002.779480,394.364288 997.163696,404.607208 
	C996.632446,404.418091 996.095764,404.318512 996.094727,404.213715 
	C995.972290,391.645233 994.279480,379.004517 997.860168,366.604675 
	C1000.851807,356.244843 1006.751526,348.004974 1014.574463,340.532928 
	C1023.813416,331.708344 1034.404541,325.572327 1046.045776,320.851410 
	C1057.553223,316.184784 1069.500488,313.433380 1081.811890,311.789642 
	C1092.690186,310.337219 1103.238647,311.273743 1113.809570,313.826355 
	C1118.082275,314.858124 1121.870483,316.943146 1125.253662,319.348724 
	C1130.574219,323.131866 1129.694336,328.699646 1127.577637,334.476257 
z"/>
<path fill="#000000" opacity="1.000000" stroke="none" 
	d="
M983.783447,261.773010 
	C983.921082,269.830505 983.921082,277.471893 983.921082,285.402679 
	C979.371704,284.350983 977.462952,279.863464 973.855774,277.553894 
	C964.422852,271.514343 954.587402,266.920319 943.737244,263.756378 
	C928.454956,259.299988 912.817627,256.292664 897.609924,251.567017 
	C890.332703,249.305679 883.050781,246.990311 877.453796,241.912155 
	C868.966736,234.211777 865.712769,228.467789 876.177979,215.177460 
	C889.103088,198.763229 904.467590,185.191742 922.919739,175.254608 
	C927.235718,172.930267 927.495605,173.307831 928.060913,178.457367 
	C930.061768,196.682922 937.468750,212.332489 951.151672,224.684433 
	C957.655457,230.555542 964.785339,235.732574 971.296265,241.596344 
	C977.230164,246.940292 982.435303,252.958450 983.783447,261.773010 
z"/>
<path fill="#000000" opacity="1.000000" stroke="none" 
	d="
M1083.971436,251.239624 
	C1070.205200,254.736374 1056.772461,257.959595 1043.388550,261.312225 
	C1028.836060,264.957581 1014.592712,270.289459 1002.610413,280.000488 
	C1000.492981,281.716522 999.365479,284.618378 995.870056,285.484283 
	C995.694702,277.183441 994.973938,269.032654 996.321655,261.064789 
	C998.090210,250.608917 1005.327698,243.444519 1013.424744,237.557098 
	C1029.047119,226.197983 1042.356079,213.084259 1048.811768,194.380249 
	C1050.407959,189.755554 1051.185425,184.804810 1051.900024,179.939423 
	C1052.213501,177.805161 1052.558716,175.713638 1053.152710,173.478317 
	C1068.404053,180.227829 1081.020630,190.645721 1092.633301,202.141266 
	C1098.177490,207.629410 1103.429688,213.723145 1107.409546,220.612061 
	C1111.632080,227.921219 1110.622803,234.207703 1104.643799,240.182632 
	C1098.962769,245.859772 1091.500244,248.224091 1083.971436,251.239624 
z"/>
<path fill="#000000" opacity="1.000000" stroke="none" 
	d="
M1031.477417,314.523285 
	C1017.840759,321.685333 1005.615967,329.985077 996.952698,342.652313 
	C996.658081,342.555023 996.110779,342.460358 996.107910,342.350983 
	C995.778076,330.120117 994.293091,317.792389 998.426575,305.868011 
	C1003.674011,290.729980 1016.120239,283.494019 1029.880981,278.071136 
	C1039.177612,274.407440 1048.940430,272.172241 1058.675293,269.836823 
	C1073.937866,266.175262 1089.421753,263.160095 1103.330444,255.106339 
	C1109.464233,251.554718 1114.315308,246.985672 1118.548950,240.898453 
	C1123.847656,250.769287 1126.901367,261.034546 1128.983154,271.520905 
	C1131.170532,282.540009 1132.401001,293.711243 1132.080566,305.021088 
	C1131.974976,308.746094 1131.588257,309.387939 1128.023926,307.320618 
	C1116.249023,300.491028 1103.189331,299.779999 1089.954468,299.983459 
	C1069.445801,300.298767 1050.177368,305.462494 1031.477417,314.523285 
z"/>
<path fill="#000000" opacity="1.000000" stroke="none" 
	d="
M960.869507,282.952209 
	C976.655212,292.278046 984.907898,305.554596 984.363220,323.882111 
	C984.180786,330.023285 984.334473,336.174469 984.334473,343.120636 
	C978.453369,338.140594 974.489929,332.387573 969.130920,327.961334 
	C956.746460,317.732544 942.632690,311.097076 927.536987,306.111847 
	C918.839600,303.239685 909.806702,300.892700 900.908142,300.383972 
	C883.276733,299.375946 865.221558,298.258545 849.171082,308.954529 
	C847.606567,285.039612 850.294739,262.391479 861.376953,241.066376 
	C871.620178,255.444809 886.716980,260.595520 902.621704,265.020966 
	C919.905151,269.830017 937.854858,272.356750 954.411865,279.804626 
	C956.508240,280.747620 958.315308,282.182831 960.869507,282.952209 
z"/>
<path fill="#000000" opacity="1.000000" stroke="none" 
	d="
M1042.714233,431.735291 
	C1028.784912,436.946320 1015.147949,441.607697 1000.311462,441.157440 
	C996.510803,441.042114 995.640747,440.522736 996.390625,436.368042 
	C998.581543,424.228058 1003.624207,413.462463 1011.368530,404.132355 
	C1016.724670,397.679413 1023.463989,392.458130 1030.654419,388.056335 
	C1036.788330,384.301270 1043.241333,380.995850 1050.165771,378.990479 
	C1058.520020,376.570984 1067.050415,374.131592 1075.747925,374.262054 
	C1082.859009,374.368683 1090.043091,376.059113 1096.224854,380.049683 
	C1101.714478,383.593475 1101.948364,387.304260 1097.794800,392.144196 
	C1086.925903,404.809052 1074.098999,415.151276 1059.875732,423.708710 
	C1054.605469,426.879578 1048.676147,428.954895 1042.714233,431.735291 
z"/>
<path fill="#000000" opacity="1.000000" stroke="none" 
	d="
M933.572510,380.207031 
	C942.976868,384.582397 951.758240,389.109985 959.619141,395.505615 
	C973.383118,406.703827 980.759399,421.249695 983.889526,438.337616 
	C984.405212,441.152802 982.686890,441.186462 980.640686,441.163696 
	C973.719421,441.086670 967.032898,439.849579 960.204651,438.658844 
	C947.966980,436.524780 936.956787,431.771820 926.021912,426.582458 
	C916.847656,422.228607 908.360291,416.590759 900.503662,410.128357 
	C893.498413,404.366241 887.093079,397.991211 881.116821,391.118500 
	C877.743591,387.239227 878.921448,384.459351 882.010376,381.939240 
	C890.281372,375.191345 900.084167,373.140381 910.307434,374.900696 
	C917.988770,376.223358 925.950195,376.724182 933.572510,380.207031 
z"/>
<path fill="#000000" opacity="1.000000" stroke="none" 
	d="
M948.486755,204.383301 
	C942.833374,195.773163 940.283752,186.651321 939.842468,176.724289 
	C939.435425,167.568298 939.081604,167.362274 948.143127,164.779541 
	C956.246155,162.469971 964.402527,160.351562 972.936218,159.913315 
	C984.361206,159.326569 984.352356,159.137039 984.351807,170.687012 
	C984.350830,191.007645 984.361084,211.328293 984.323608,231.648865 
	C984.320679,233.238235 984.827942,234.941345 983.400940,236.936813 
	C976.157288,229.225281 967.028137,224.016388 959.613464,216.576141 
	C955.791687,212.741180 951.811951,209.138412 948.486755,204.383301 
z"/>
<path fill="#000000" opacity="1.000000" stroke="none" 
	d="
M1000.891174,158.969269 
	C1013.477844,160.445587 1025.468384,162.516830 1037.163208,166.268784 
	C1040.677856,167.396347 1041.628296,169.427444 1041.305176,172.441040 
	C1040.230835,182.460938 1038.170166,192.113022 1033.382690,201.259552 
	C1029.330444,209.001480 1023.161133,214.588120 1016.773926,219.869690 
	C1010.088135,225.398300 1003.496887,231.050339 996.748657,236.585693 
	C995.030762,235.559967 995.777161,233.886734 995.773865,232.555084 
	C995.717163,209.586685 995.816223,186.617477 995.645203,163.650192 
	C995.617126,159.873352 996.749878,158.417908 1000.891174,158.969269 
z"/>
<path fill="#000000" opacity="1.000000" stroke="none" 
	d="
M705.456909,519.503296 
	C719.125305,524.938354 731.391724,532.541077 745.144409,536.982422 
	C754.979797,540.158691 764.092773,539.379578 772.905518,534.713806 
	C785.941833,527.811829 798.653259,520.292603 811.731079,513.473755 
	C819.169250,509.595520 827.121277,509.901642 835.005615,512.761353 
	C851.930176,518.899841 867.621704,527.802185 884.238953,534.614075 
	C888.428772,536.331665 892.837585,537.538391 897.195923,538.807617 
	C898.614624,539.220764 899.927490,539.477600 899.365967,541.285828 
	C896.995239,548.920776 897.989624,557.102722 895.419983,564.720886 
	C893.860901,569.343262 893.658752,574.295227 891.525635,578.874695 
	C890.380981,581.332153 889.634277,581.205750 887.620728,580.551514 
	C877.301331,577.199280 867.953613,571.896118 858.594299,566.550842 
	C849.712280,561.478210 840.589478,556.941223 830.687866,554.011475 
	C822.081665,551.464966 814.323242,553.764587 806.849731,557.467163 
	C796.999939,562.346985 787.487732,567.855286 778.053467,573.533264 
	C771.804749,577.294006 765.114380,580.639282 757.807434,582.118652 
	C754.789490,582.729614 752.038940,581.062805 749.203552,580.293701 
	C736.694092,576.900574 725.709839,570.021790 713.976562,564.852234 
	C703.079834,560.051270 692.492249,554.233826 680.355347,553.020142 
	C670.651245,552.049866 663.102966,557.640137 655.180237,561.875977 
	C645.405090,567.102356 637.442688,575.169983 627.255798,579.804016 
	C624.677856,580.976685 623.545776,582.036255 622.493958,577.825623 
	C620.391907,569.410522 617.980591,561.089844 616.705017,552.482117 
	C616.183105,548.960754 617.385681,545.369385 615.710327,541.827698 
	C614.919556,540.156128 615.658081,538.606018 618.271362,537.601013 
	C633.335938,531.807678 647.126587,523.389587 661.255310,515.716248 
	C673.411255,509.114410 685.212708,509.757507 697.247681,515.452576 
	C699.890930,516.703430 702.508179,518.009460 705.456909,519.503296 
z"/>
<path fill="#000000" opacity="1.000000" stroke="none" 
	d="
M703.306885,463.581787 
	C716.954468,469.926544 729.867493,477.009460 743.756226,481.871765 
	C754.679443,485.695892 765.160156,484.431091 775.405396,478.963745 
	C789.310608,471.543182 802.125671,462.047607 817.186401,456.824371 
	C822.845459,454.861755 828.334229,455.863831 833.754395,457.995392 
	C850.326538,464.512543 864.737793,475.367279 881.404053,481.688507 
	C882.465454,482.091095 883.524841,482.812531 884.594299,482.830109 
	C892.462341,482.959564 893.083008,489.261108 894.021667,494.547363 
	C895.148132,500.891296 896.948364,507.088318 897.700134,513.549561 
	C898.125305,517.203918 897.879272,520.980225 899.031128,524.737671 
	C899.908142,527.598389 896.143311,526.263916 895.026245,525.958252 
	C891.432373,524.974976 888.024475,523.318787 884.533447,521.951355 
	C867.771118,515.385498 852.274292,505.854919 834.881897,500.764954 
	C824.619446,497.761597 815.188660,498.998383 805.330261,503.758789 
	C791.238953,510.563141 778.738770,520.217773 764.080139,525.909241 
	C759.524719,527.677979 755.114685,527.807983 750.554565,526.441467 
	C737.425110,522.507202 725.340759,516.204102 713.165161,510.070923 
	C704.412537,505.661957 695.395691,501.520386 685.822266,499.545654 
	C677.308289,497.789551 668.840637,499.467316 660.752380,503.252258 
	C646.696533,509.829742 633.762634,518.558289 619.407898,524.527954 
	C618.285217,524.994873 617.167725,526.080444 615.934143,525.378845 
	C615.523315,525.145203 615.518738,523.815369 615.661499,523.048645 
	C617.239014,514.577393 616.882568,505.815857 619.741272,497.520264 
	C621.114502,493.535278 621.901367,489.345032 622.884216,485.231140 
	C623.110718,484.282928 623.554382,484.084137 624.476929,483.808350 
	C635.564697,480.493866 644.625671,473.590576 654.052185,467.239075 
	C662.123718,461.800537 669.768188,455.102234 680.626587,455.846832 
	C687.407715,456.311798 693.165710,459.771637 699.433594,461.722595 
	C700.670715,462.107666 701.811523,462.802368 703.306885,463.581787 
z"/>
<path fill="#000000" opacity="1.000000" stroke="none" 
	d="
M714.128479,577.704834 
	C724.547241,582.777405 734.855042,587.088135 745.248352,591.341003 
	C760.433411,597.554565 771.595886,589.697144 783.502686,583.591919 
	C794.339966,578.035095 804.282593,570.835022 815.726990,566.322327 
	C823.242371,563.358826 830.257202,565.166931 836.789001,568.311707 
	C848.406128,573.904968 859.573547,580.424805 871.073364,586.273376 
	C875.793945,588.674255 880.471619,591.378418 886.010864,592.184387 
	C880.747498,604.444153 873.305664,615.091187 864.846252,625.109192 
	C863.298462,626.942078 861.946716,627.426575 859.809631,626.189514 
	C852.429688,621.917480 844.485657,618.866760 836.441895,616.186523 
	C827.771912,613.297852 819.120605,613.038696 810.339478,616.695068 
	C795.222839,622.989380 782.001038,632.726501 767.265137,639.732849 
	C758.251709,644.018372 750.257263,641.987854 741.912231,638.560425 
	C727.945801,632.824097 714.561035,625.843384 700.840515,619.583801 
	C690.536682,614.882935 679.807556,611.993774 668.634216,615.322998 
	C662.993164,617.003784 657.336975,619.259949 652.339783,622.634888 
	C649.992371,624.220154 648.497803,624.509399 646.422485,621.737244 
	C640.008789,613.170288 633.933411,604.446655 629.467896,594.672668 
	C628.716553,593.028320 627.856445,591.722168 630.280518,590.739807 
	C641.109009,586.351379 650.009460,578.833313 659.703308,572.592041 
	C665.866211,568.624146 671.995056,564.313843 679.982422,564.964050 
	C686.672607,565.508667 693.027283,567.583069 698.883362,570.463989 
	C703.816101,572.890747 708.963501,574.901367 714.128479,577.704834 
z"/>
<path fill="#000101" opacity="1.000000" stroke="none" 
	d="
M736.422363,432.477844 
	C742.218506,435.002075 747.945129,436.457153 753.716919,437.696899 
	C758.456604,438.715027 762.954895,437.211395 767.290588,435.596344 
	C779.111206,431.193176 789.569946,424.223297 800.427185,417.963776 
	C806.438782,414.497925 812.667603,411.188995 819.341187,408.989227 
	C825.997253,406.795288 830.452454,411.466187 835.222534,414.504822 
	C845.081360,420.785156 853.792480,428.502960 861.844360,436.986847 
	C869.709900,445.274384 875.874573,454.794220 881.986084,464.353607 
	C882.732361,465.520966 882.786377,467.130920 883.305664,469.076965 
	C880.064148,468.409637 877.480164,467.638824 874.846008,466.289154 
	C863.898254,460.679779 853.526245,454.022614 842.311584,448.885834 
	C830.309204,443.388184 818.619629,442.134338 806.392090,448.419403 
	C795.231445,454.156006 784.369080,460.364258 773.714661,466.957001 
	C762.445984,473.929779 751.038208,473.657837 739.417480,467.981201 
	C727.585022,462.201141 715.923401,456.017395 703.832581,450.837708 
	C694.568909,446.869202 685.051086,442.758270 674.472046,444.169098 
	C668.355652,444.984833 663.039490,448.043610 657.887756,451.093262 
	C650.019287,455.751129 642.470520,460.949127 634.783264,465.913361 
	C633.933228,466.462280 633.274109,468.199127 632.020935,466.698395 
	C631.273071,465.802826 632.177246,464.780518 632.670044,463.992981 
	C637.195496,456.761627 642.222717,449.887238 647.230774,442.979492 
	C655.732971,431.252106 667.631653,423.347443 678.491394,414.314087 
	C683.945801,409.777008 690.585205,412.466156 696.219727,414.629608 
	C709.786682,419.838837 722.468994,427.124084 736.422363,432.477844 
z"/>
<path fill="#000001" opacity="1.000000" stroke="none" 
	d="
M707.685669,635.172363 
	C722.180176,642.325195 735.969910,650.275330 751.577209,653.660828 
	C761.211121,655.750610 769.730408,651.661316 777.907288,647.212646 
	C787.898132,641.777161 797.902100,636.338074 807.626648,630.448669 
	C818.085754,624.114502 828.435791,624.172302 839.183350,629.376221 
	C842.973999,631.211548 846.955994,632.654297 850.863525,634.244690 
	C853.208679,635.199280 854.246643,636.404663 851.817322,638.417969 
	C839.564331,648.572571 826.476013,657.109680 811.721802,663.568787 
	C789.755920,673.185059 766.850098,675.696716 743.589417,673.868042 
	C722.016296,672.171997 701.642456,665.260864 683.026733,653.720093 
	C675.357849,648.965698 668.421753,643.309204 661.530151,637.572815 
	C657.157104,633.932800 657.414978,632.861145 662.703247,630.387390 
	C663.446777,630.039612 664.168884,629.644775 664.891907,629.254883 
	C674.013306,624.336853 683.096375,624.206421 692.440857,628.896423 
	C697.223999,631.297119 702.375671,632.963440 707.685669,635.172363 
z"/>
<path fill="#000000" opacity="1.000000" stroke="none" 
	d="
M790.730103,395.234894 
	C796.666748,396.086517 801.842529,398.024902 807.291870,400.376251 
	C802.800293,404.526276 797.283997,406.389679 792.512146,409.419708 
	C785.978882,413.568268 779.033386,417.072021 772.231201,420.791077 
	C767.839050,423.192413 763.213013,425.136963 758.351135,426.264587 
	C754.760864,427.097260 751.074463,425.620270 747.879578,424.526550 
	C731.354370,418.869629 716.128540,410.171082 699.040527,403.374237 
	C707.876953,399.704376 715.945557,396.897003 724.287109,394.858826 
	C732.434631,392.868073 740.777405,392.596069 749.044678,391.637512 
	C756.695129,390.750488 764.139404,391.789337 771.591492,391.990479 
	C777.770508,392.157227 784.401733,392.314209 790.730103,395.234894 
z"/>
<path fill="#010101" opacity="1.000000" stroke="none" 
	d="
M1229.614258,391.596680 
	C1245.712769,391.781799 1260.541992,395.410858 1275.058228,401.267487 
	C1299.611328,411.173584 1320.489014,425.765015 1335.602173,447.722229 
	C1341.941406,456.932373 1345.174805,467.582428 1347.189575,478.596069 
	C1349.255493,489.888336 1349.304810,501.348419 1348.059326,512.551086 
	C1346.212036,529.165344 1341.514282,545.184814 1332.477051,559.568726 
	C1323.291138,574.189392 1311.772705,586.598572 1297.085815,595.829163 
	C1276.908813,608.510376 1254.850342,615.467712 1231.028076,613.892944 
	C1207.229858,612.319763 1186.615845,602.816223 1170.079224,585.026733 
	C1161.891602,576.218689 1155.311279,566.453796 1151.673584,555.100464 
	C1147.744019,542.836182 1146.155273,530.193054 1147.367554,517.142029 
	C1148.712646,502.660889 1154.156128,490.036835 1163.193970,479.015442 
	C1167.869141,473.314392 1174.015015,468.965881 1180.367676,465.088165 
	C1189.116943,459.747620 1198.546143,457.141510 1208.769409,455.605438 
	C1224.347168,453.264893 1238.180176,457.118317 1250.141968,466.010162 
	C1268.124634,479.377716 1277.333130,503.409241 1268.848267,525.146362 
	C1263.191162,539.638733 1251.955200,548.111206 1236.513916,551.345032 
	C1222.516113,554.276489 1206.803467,548.111511 1200.145142,535.929077 
	C1193.676758,524.093994 1194.140503,505.058838 1209.435547,496.561279 
	C1215.293091,493.306854 1227.120605,494.046265 1233.522583,498.666168 
	C1238.739380,502.430847 1241.267090,510.790405 1239.355225,517.954834 
	C1238.021606,522.951355 1232.199097,526.972717 1225.415649,526.884033 
	C1221.409912,526.831787 1219.548706,529.360168 1218.351074,532.115356 
	C1217.244751,534.660828 1219.714355,537.746826 1221.390381,538.257324 
	C1224.729492,539.274353 1228.762573,539.533508 1232.131348,538.656128 
	C1243.466553,535.703674 1251.404175,525.274780 1251.857666,514.564270 
	C1252.512451,499.101379 1242.748413,486.950317 1227.401123,483.255554 
	C1214.470581,480.142609 1203.456299,484.100006 1194.804077,493.036713 
	C1184.793457,503.376434 1181.566406,516.337952 1185.490234,530.548218 
	C1189.805054,546.174927 1199.476929,557.372803 1215.012939,561.984924 
	C1228.164795,565.889282 1241.464600,564.840576 1253.939453,558.159363 
	C1269.605835,549.768738 1279.383057,536.773682 1282.365723,519.456177 
	C1284.422241,507.516571 1283.253052,495.514618 1278.320435,484.033722 
	C1273.987427,473.949188 1267.751343,465.248962 1259.517090,458.288361 
	C1250.547974,450.706421 1240.086670,446.062500 1228.212646,444.071564 
	C1212.266968,441.397949 1197.310669,443.978271 1182.741821,450.178833 
	C1171.152466,455.111328 1161.445801,462.593475 1153.649414,472.519379 
	C1147.154663,480.788422 1141.547241,489.619995 1138.682495,499.794006 
	C1135.769653,510.139160 1134.482910,520.734863 1135.252075,531.564636 
	C1136.567383,550.083801 1142.244995,566.864441 1152.772827,582.341003 
	C1159.683960,592.500916 1168.195923,600.950806 1177.868774,607.913635 
	C1190.100952,616.718750 1204.173584,621.782898 1219.292480,624.054565 
	C1236.041504,626.571228 1252.323975,625.321411 1268.691040,621.177002 
	C1283.649780,617.389343 1296.983521,610.641541 1309.494629,601.875366 
	C1319.581543,594.807678 1328.443848,586.316772 1335.443115,576.355408 
	C1344.693237,563.190857 1352.111938,549.046753 1356.065918,533.073914 
	C1358.124023,524.759583 1358.640991,516.414490 1359.868042,508.087250 
	C1360.053223,506.830627 1360.395996,505.861053 1361.647583,505.106384 
	C1364.113647,511.386078 1364.984741,518.164124 1364.385254,524.528076 
	C1363.663574,532.189697 1365.032959,539.739075 1364.103638,547.345276 
	C1362.079712,563.909241 1357.529297,579.591431 1350.486816,594.796631 
	C1344.594971,607.517334 1335.869995,618.066895 1327.323853,628.786011 
	C1323.405396,633.700806 1318.461304,637.970398 1313.402466,641.758118 
	C1307.508423,646.171204 1301.837036,650.910339 1295.364746,654.597412 
	C1283.280884,661.481201 1270.610596,666.788757 1257.162354,670.287048 
	C1242.931030,673.988953 1228.430054,674.755859 1213.846802,673.939636 
	C1202.159180,673.285583 1190.789307,670.955994 1179.528198,667.512756 
	C1162.547485,662.320618 1147.615234,653.678040 1133.743042,642.864990 
	C1121.272705,633.144653 1110.834229,621.622192 1102.509644,608.180725 
	C1095.312500,596.559631 1090.213013,584.174438 1086.510010,570.926208 
	C1083.961792,561.809937 1082.457520,552.775452 1081.726196,543.452698 
	C1081.469116,540.174866 1080.607910,536.980408 1080.721436,533.608643 
	C1081.018799,524.784546 1082.444580,516.123535 1083.569214,507.391693 
	C1085.314697,493.842651 1089.925415,481.337097 1095.776367,469.306854 
	C1100.850830,458.873077 1107.584717,449.426392 1115.180786,440.471954 
	C1120.449585,434.260895 1126.169800,428.651306 1132.299438,423.510773 
	C1141.160034,416.080200 1150.985474,409.937103 1161.422241,404.866333 
	C1172.009033,399.722656 1183.218262,396.366913 1194.644775,393.772827 
	C1201.332031,392.254639 1208.182007,391.793091 1215.508301,391.876129 
	C1220.329102,390.353180 1224.765259,390.965576 1229.614258,391.596680 
z"/>
<path fill="#82789B" opacity="1.000000" stroke="none" 
	d="
M1229.845947,391.492554 
	C1225.651978,391.874023 1221.269531,391.920654 1216.425293,391.891052 
	C1220.374756,388.400513 1225.000366,389.452362 1229.845947,391.492554 
z"/>
<path fill="#010100" opacity="1.000000" stroke="none" 
	d="
M1093.074951,667.970337 
	C1103.863892,679.859070 1113.227417,692.394104 1119.447876,706.838867 
	C1124.463135,718.484924 1128.173340,730.610474 1130.157104,743.282104 
	C1133.389771,763.932617 1131.980835,784.073975 1126.406494,804.218079 
	C1121.170654,823.138794 1112.311646,839.795410 1099.911743,854.989502 
	C1091.339111,865.493896 1081.284302,874.274048 1070.750732,882.422791 
	C1063.401001,888.108643 1054.708496,892.037781 1046.069336,895.862427 
	C1038.509888,899.209167 1030.557861,901.086426 1022.859131,903.838623 
	C1014.452637,906.843933 1007.051086,904.030518 999.995422,899.862122 
	C984.190247,890.524597 973.036438,877.071228 964.627625,860.828979 
	C958.328125,848.661072 954.296570,835.844299 953.064270,822.469238 
	C951.968933,810.580444 956.047607,799.192932 960.412720,788.113159 
	C967.824585,769.300110 979.595154,753.109558 990.710388,736.467773 
	C999.742310,722.945190 1009.318970,709.638428 1015.604919,694.521057 
	C1021.563110,680.191772 1024.075928,665.435486 1020.305481,649.825989 
	C1018.451294,642.150208 1015.329407,635.370483 1011.062317,628.918213 
	C1010.548584,628.141479 1010.453796,627.087646 1009.971252,625.542175 
	C1042.959351,629.849243 1069.722290,645.153992 1093.074951,667.970337 
z"/>
<path fill="#010000" opacity="1.000000" stroke="none" 
	d="
M965.322754,905.383301 
	C945.850403,901.411194 927.994568,894.861572 911.739929,883.614502 
	C897.790344,873.962341 885.402405,862.855835 875.406250,849.311096 
	C863.025879,832.535828 854.466064,813.897278 850.943420,793.161072 
	C847.675049,773.921692 847.787964,754.840942 851.522278,735.552551 
	C853.984253,722.835815 858.578125,711.011108 864.177307,699.684387 
	C869.013855,689.900574 875.712830,681.099121 883.078369,672.726562 
	C894.233093,660.046753 907.080872,649.810120 921.647278,641.610352 
	C935.447571,633.841614 950.289673,628.791016 965.880249,626.021179 
	C972.885376,624.776611 979.948547,624.077942 987.081970,623.863403 
	C990.315735,623.766174 991.919739,624.485352 992.853638,627.843262 
	C994.712646,634.526978 995.783386,641.175110 994.579224,648.071228 
	C992.889099,657.750793 985.440369,662.982483 978.282471,667.965881 
	C966.554749,676.130859 953.711365,682.610168 942.215637,691.180969 
	C924.860779,704.120117 910.744019,719.603455 906.654968,741.578735 
	C904.730774,751.919434 903.856018,762.698792 905.492004,773.296631 
	C906.527588,780.005249 905.286011,786.976135 908.227112,793.522827 
	C904.222229,791.231934 902.131714,787.543396 899.856995,784.103027 
	C893.494934,774.480713 887.753906,764.474976 884.904968,753.202026 
	C883.809937,748.869019 881.180237,748.785461 877.878723,749.030334 
	C874.579651,749.274902 872.922668,751.826416 873.188904,754.346680 
	C873.742615,759.588623 871.771118,764.499207 872.049744,769.658020 
	C872.908508,785.559387 873.840576,801.535583 879.393372,816.580811 
	C885.004028,831.782715 892.237976,846.237000 903.310486,858.457947 
	C909.556763,865.352295 915.474182,872.539368 923.605469,877.915161 
	C928.186035,880.775696 932.380432,883.613098 936.707886,886.842346 
	C936.921875,887.115295 936.968018,887.037415 936.928223,887.059021 
	C940.963013,890.051453 945.949463,891.606812 949.830200,895.506714 
	C951.471985,896.484863 952.867981,897.216248 954.604614,897.999756 
	C959.008362,898.359619 961.965698,901.255920 965.571472,902.656921 
	C966.802734,903.135193 968.642029,904.445129 965.322754,905.383301 
z"/>
<path fill="#010100" opacity="1.000000" stroke="none" 
	d="
M969.328125,891.262573 
	C919.519043,871.828186 884.486572,823.915466 886.480469,785.914001 
	C891.193054,792.638733 895.020813,799.598938 900.283264,805.214661 
	C906.272705,811.606262 911.716797,818.697571 919.163940,823.652954 
	C921.180481,824.994751 923.100708,826.516602 925.598450,824.649353 
	C928.234802,822.678406 929.646362,820.118042 928.557495,816.882812 
	C927.567383,813.941101 925.955566,811.212036 924.910767,808.284668 
	C918.620422,790.658447 915.560547,772.437744 917.030945,753.796204 
	C918.445312,735.864807 925.520386,720.909790 940.005310,708.889587 
	C953.922180,697.340759 969.537292,688.721252 984.352661,678.725464 
	C994.994690,671.545410 1004.340820,662.782593 1007.215149,648.175781 
	C1011.697754,658.317078 1010.954651,667.743286 1008.922119,676.960938 
	C1007.196533,684.786377 1003.941589,692.148499 1000.042419,699.280884 
	C989.836548,717.949463 976.797180,734.747253 965.470215,752.666382 
	C958.016968,764.457520 951.232788,776.724792 946.654724,789.840454 
	C941.887329,803.498291 940.543579,817.702454 942.773071,832.393066 
	C946.094116,854.276917 956.241150,872.653381 969.612122,890.068604 
	C969.799561,890.692139 969.808472,891.024170 969.328125,891.262573 
z"/>
<path fill="#AD913E" opacity="1.000000" stroke="none" 
	d="
M965.099426,905.586731 
	C965.279480,905.186768 965.612671,905.149292 965.921082,905.041321 
	C966.914795,904.693054 966.726624,904.286255 965.943970,903.900879 
	C962.402344,902.156433 958.857422,900.418518 955.129517,898.365112 
	C956.866882,896.850891 958.446655,898.116516 960.016174,898.864929 
	C965.929932,901.684814 971.832397,904.524231 977.970886,907.145691 
	C973.600464,908.040833 969.271912,908.927307 965.099426,905.586731 
z"/>
<path fill="#AD913E" opacity="1.000000" stroke="none" 
	d="
M936.850464,886.775635 
	C931.429138,886.179260 928.285217,881.712830 924.071106,878.335938 
	C928.755249,880.004333 933.575195,881.987549 936.850464,886.775635 
z"/>
<path fill="#AD913E" opacity="1.000000" stroke="none" 
	d="
M950.039734,895.406128 
	C945.418030,893.588806 940.890747,891.209290 936.940063,887.438721 
	C941.788635,888.871216 946.873291,890.358521 950.039734,895.406128 
z"/>
<path fill="#9E7D36" opacity="1.000000" stroke="none" 
	d="
M974.191528,894.362549 
	C972.425049,894.149475 971.037415,894.136658 970.069092,892.484558 
	C970.101624,891.959534 970.268860,891.737854 970.777649,891.754761 
	C972.244690,891.919250 973.243469,892.177124 974.150330,893.369507 
	C974.410706,893.918152 974.512207,894.188293 974.191528,894.362549 
z"/>
<path fill="#9E7D36" opacity="1.000000" stroke="none" 
	d="
M974.174561,893.802979 
	C974.775940,894.007202 975.593079,894.109924 975.311279,895.017029 
	C974.897095,894.880310 974.482910,894.743591 973.919067,894.436768 
	C973.769409,894.266663 974.039978,893.957947 974.174561,893.802979 
z"/>
<path fill="#010100" opacity="1.000000" stroke="none" 
	d="
M971.040344,891.733276 
	C970.919250,892.009094 970.719421,892.024902 970.226929,892.110962 
	C969.634277,892.006470 969.334229,891.831726 968.936523,891.413025 
	C968.992249,891.028259 969.145630,890.887512 969.544800,890.553467 
	C970.180908,890.731262 970.571228,891.102295 971.040344,891.733276 
z"/>
<path fill="#000000" opacity="1.000000" stroke="none" 
	d="
M1147.280518,1017.000000 
	C1143.671631,1017.299866 1142.527588,1016.924988 1143.809937,1013.042419 
	C1147.999512,1000.357300 1162.187134,999.493835 1170.334351,1006.235657 
	C1172.740845,1008.226929 1172.851685,1012.089783 1172.944214,1015.333191 
	C1173.016846,1017.874268 1170.876343,1016.942505 1169.636841,1016.957092 
	C1162.340576,1017.043274 1155.042969,1016.999817 1147.280518,1017.000000 
z"/>
<path fill="#000000" opacity="1.000000" stroke="none" 
	d="
M805.994446,1011.257507 
	C809.259583,1003.562622 815.654297,1000.928528 823.147217,1002.633606 
	C830.967041,1004.413086 833.733215,1007.511597 834.032959,1013.605591 
	C834.152344,1016.034424 833.646423,1017.146423 830.838806,1017.066650 
	C823.700378,1016.863647 816.538635,1016.729004 809.412903,1017.091492 
	C804.340149,1017.349548 804.251221,1015.289734 805.994446,1011.257507 
z"/>
<path fill="#CCA935" opacity="1.000000" stroke="none" 
	d="
M1029.228027,669.090698 
	C1027.579102,664.553711 1026.206909,660.324280 1024.312500,656.343201 
	C1022.674072,652.899902 1024.112671,650.156250 1026.430054,648.523193 
	C1028.674438,646.941467 1031.275757,648.063782 1033.478149,650.261536 
	C1040.623413,657.391663 1046.327148,665.625854 1051.757202,674.011780 
	C1060.698730,687.820923 1066.872314,702.902832 1071.087769,718.799988 
	C1074.526611,731.768127 1075.246460,744.969360 1074.898682,758.309998 
	C1074.506592,773.352539 1070.765747,787.496094 1064.098755,800.925049 
	C1063.676880,801.774719 1063.356689,802.674866 1062.750488,804.121155 
	C1071.104248,802.619385 1077.487427,798.448181 1083.169189,793.317688 
	C1090.511353,786.687927 1097.297974,779.512207 1102.310303,770.820679 
	C1103.597778,768.587891 1105.880127,767.255127 1108.717773,768.273499 
	C1111.292236,769.197510 1111.939819,771.177368 1111.954590,773.798584 
	C1111.999390,781.733398 1110.382568,789.332703 1108.728882,797.075317 
	C1105.872070,810.450256 1100.514893,822.583191 1093.805298,834.334656 
	C1084.519043,850.598938 1071.214844,862.020508 1053.819946,868.875977 
	C1044.454712,872.566895 1034.578857,873.523865 1024.759033,874.730957 
	C1006.201721,877.012146 982.192017,864.484192 974.085327,848.033997 
	C965.529541,830.672424 964.629761,812.937439 972.858154,795.089661 
	C978.315918,783.251465 986.894104,773.609619 995.040894,763.675110 
	C1005.648254,750.739868 1015.608948,737.377869 1023.351624,722.471436 
	C1029.503540,710.627502 1032.195557,697.878601 1032.007812,684.736694 
	C1031.936646,679.754822 1031.346191,674.371399 1029.228027,669.090698 
z"/>
<path fill="#010000" opacity="1.000000" stroke="none" 
	d="
M1005.125854,860.090637 
	C982.319275,852.518677 973.936401,825.615662 980.915344,805.261780 
	C984.354370,795.231934 990.668518,787.166931 997.197144,779.186951 
	C1011.669373,761.497253 1025.921875,743.639465 1035.776001,722.836243 
	C1038.269409,717.572327 1039.859131,711.872437 1041.049072,706.030579 
	C1042.438477,699.209106 1044.116089,692.473938 1044.120239,684.903992 
	C1047.612305,686.850281 1048.453247,690.130371 1049.632080,692.740234 
	C1054.867676,704.331421 1059.734375,716.228821 1061.760010,728.767700 
	C1063.827393,741.565857 1064.975098,754.487427 1062.589966,767.656921 
	C1060.320068,780.190063 1056.663940,791.962036 1050.229614,802.897949 
	C1049.653198,803.877502 1048.925415,804.770569 1048.239868,805.682800 
	C1045.322632,809.565430 1046.982300,813.897644 1051.722290,814.963013 
	C1064.799561,817.902527 1075.834839,813.015869 1086.199829,805.866028 
	C1089.470825,803.609802 1092.363892,800.805969 1095.862549,797.892517 
	C1096.196045,804.515808 1093.410889,809.789490 1091.143799,815.188477 
	C1087.499268,823.867920 1083.046875,832.353333 1076.661499,839.058716 
	C1067.976685,848.178589 1058.367310,856.072937 1045.271606,859.463318 
	C1034.122681,862.349670 1023.138611,861.970093 1012.000244,862.217102 
	C1009.531555,862.271790 1007.745056,860.621887 1005.125854,860.090637 
z"/>
</svg>